<svg xmlns="http://www.w3.org/2000/svg" width="26" height="26" viewBox="0 0 26 26"><defs><style>.a{fill:rgba(0,0,0,0);}.b{fill:#fff;}</style></defs><g transform="translate(-0.031)"><g transform="translate(0.031)"><rect class="a" width="26" height="26" transform="translate(0)"/></g><g transform="translate(1.312 2.142)"><path class="b" d="M20.953,18.532A10.673,10.673,0,0,1,12.266,2.01,10.657,10.657,0,0,0,1.98,12.658c0,.149.021.3.021.448a5.385,5.385,0,0,1,2.111-.448h0A8.491,8.491,0,0,1,8.7,5.09,12.406,12.406,0,0,0,9.8,13.724a12.884,12.884,0,0,0,7.248,6.246,8.491,8.491,0,0,1-5.98,1.077A4.189,4.189,0,0,1,9.324,22.8,10.648,10.648,0,0,0,21.561,18.51C21.38,18.521,21.166,18.532,20.953,18.532Z" transform="translate(-0.935 -2.01)"/><path class="b" d="M7.4,16.132H7.2A3.194,3.194,0,1,0,4.2,20.4H7.4a2.132,2.132,0,1,0,0-4.264Z" transform="translate(-1 -1.22)"/></g></g></svg>