<svg xmlns="http://www.w3.org/2000/svg" width="26" height="26" viewBox="0 0 26 26"><defs><style>.a{fill:none;}.b{fill:#2f419b;}</style></defs><path class="a" d="M0,0H26V26H0Z"/><path class="b" d="M7.24,5.2,5.29,3.258,3.763,4.786,5.7,6.725ZM1,11.329H4.25V13.5H1ZM11.833.55H14v3.2H11.833Zm8.71,2.7,1.525,1.524L20.13,6.716,18.605,5.191Zm-1.95,16.375,1.939,1.95L22.06,20.05l-1.95-1.939Zm2.99-8.3h3.25V13.5h-3.25ZM12.917,5.912a6.5,6.5,0,1,0,6.5,6.5A6.505,6.505,0,0,0,12.917,5.912Zm0,10.833a4.333,4.333,0,1,1,4.333-4.333A4.332,4.332,0,0,1,12.917,16.746Zm-1.083,4.333H14v3.2H11.833Zm-8.071-1.04L5.29,21.567l1.939-1.95L5.7,18.089Z" transform="translate(0.083 0.046)"/></svg>